PathFileType	4	(X/Y/Z)	C:/Users/beibeiliu/ov580/test_trc\sequence.9_training_dense_right.trc
DataRate	CameraRate	NumFrames	NumMarkers	Units	OrigDataRate	OrigDataStartFrame	OrigNumFrames
120	120	12	19	mm	120	26	77
Frame#	Time	ThumbCMC			ThumbMCP			ThumbIP			ThumbTip			IndexMCP			IndexPIP			IndexTip			MiddleMCP			MiddlePIP			MiddleTip			RingMCP			RingPIP			RingTip			PinkyMCP			PinkyPIP			PinkyTip			BackHand1			BackHand2			BackHand3	
		X0	Y0	Z0	X1	Y1	Z1	X2	Y2	Z2	X3	Y3	Z3	X4	Y4	Z4	X5	Y5	Z5	X6	Y6	Z6	X7	Y7	Z7	X8	Y8	Z8	X9	Y9	Z9	X10	Y10	Z10	X11	Y11	Z11	X12	Y12	Z12	X13	Y13	Z13	X14	Y14	Z14	X15	Y15	Z15	X16	Y16	Z16	X17	Y17	Z17	X18	Y18	Z18	
25	0.208333	125.031	54.4349	13.689	120.258	68.082	-7.00143	108.764	75.8552	-21.7424	91.8001	84.0201	-36.1193	75.9429	66.8163	-29.424	59.3404	80.4362	-40.1435	43.0116	95.4113	-49.4496	53.7176	64.2932	-23.6697	40.8518	75.1726	-33.4551	22.7603	91.6409	-51.1848	44.3369	60.071	-7.46463	30.6215	71.6677	-21.49	22.6663	80.6209	-31.4702	40.2451	54.2503	10.8006	30.4418	63.0818	1.75623	17.8158	72.1916	-11.4924	75.0518	31.7443	22.1167	90.6984	21.8211	37.2789	103.261	32.806	13.6158	
26	0.216667	119.598	53.4057	18.2753	119.36	62.8754	-5.09009	112.682	68.8139	-26.7794	100.317	74.6992	-45.1839	81.7184	57.9501	-34.9147	66.0811	67.6469	-48.4944	55.6603	81.8463	-67.7415	61.9179	55.9055	-30.7848	46.3217	68.5561	-48.6441	32.4847	77.5665	-64.1796	49.0778	56.497	-21.1917	38.7874	65.6665	-37.16	25.4542	72.5765	-50.9742	39.0783	55.2719	0.194416	35.1878	62.7928	-16.118	25.632	68.7541	-29.6043	72.1358	36.3264	17.4808	81.9335	28.2992	39.9208	100.686	30.8284	17.2665	
27	0.225	125.587	55.2069	21.7838	127.738	60.9842	-5.58938	118.032	59.6916	-32.1943	112.519	63.9706	-49.0747	88.245	47.2507	-38.7759	80.0651	52.5265	-56.6731	70.1457	59.0779	-79.2575	70.6913	46.393	-37.5921	58.7583	51.8544	-57.3735	49.7775	57.1775	-82.1852	56.1328	47.8186	-23.0281	50.801	52.6746	-45.9501	37.8037	56.007	-63.6333	46.7634	50.504	-7.79786	38.529	53.3548	-22.628	36.6818	55.2587	-45.6959	72.934	36.6559	14.9788	85.574	31.9418	42.0095	101.422	32.9048	16.4364	
28	0.233333	129.459	56.0138	20.6257	135.794	54.756	-7.06947	131.593	52.3181	-27.3671	126.806	51.1534	-49.367	105.645	32.247	-41.2777	99.1095	32.3296	-58.8454	89.5558	32.6209	-84.4946	86.06	31.1517	-40.795	80.7462	30.8263	-60.7808	70.9443	27.6285	-86.0119	70.4021	34.9069	-31.5253	64.5901	33.0568	-50.2595	59.6647	31.5637	-69.1097	58.9014	41.3742	-15.4896	54.795	38.79	-33.3439	49.4924	35.2246	-49.2127	83.3046	34.025	15.2012	87.7842	36.4065	41.6993	111.609	33.0883	17.6958	
29	0.241667	134.188	60.5287	23.2234	145.172	58.5073	-2.91234	146.586	49.5402	-28.1259	138.039	42.9089	-48.0549	118.891	23.4306	-37.4093	116.585	17.8587	-54.2447	111.531	11.6143	-75.7937	101.701	17.9162	-39.3232	97.83	12.6498	-60.5442	96.8376	3.34452	-85.0824	85.402	22.831	-29.2803	84.3822	14.8878	-51.6344	83.2567	7.80104	-70.4889	72.8637	30.0497	-17.3203	69.9932	22.9001	-36.7601	67.4903	15.5284	-50.2711	92.5819	29.9809	13.224	93.6597	35.8496	40.5555	121.987	36.6011	23.132	
30	0.25	139.956	66.6307	22.0892	152.541	64.5207	-2.1494	154.231	56.8127	-22.9839	151.672	49.0183	-41.8367	141.165	25.1785	-31.2614	135.212	13.6942	-49.8867	135.923	3.40669	-67.2207	121.875	14.4527	-34.7162	122.319	3.48792	-55.7249	122.029	-8.8172	-76.1761	104.84	13.226	-28.3836	108.812	4.80077	-46.9306	106.777	-7.51382	-66.7215	90.8659	20.4087	-18.1064	93.6748	12.7413	-35.5176	94.0928	2.60719	-47.8372	103.849	28.314	14.9189	104.209	36.5428	37.6879	130.396	40.1932	25.4995	
31	0.258333	138.302	76.0381	25.4395	154.454	75.1128	-0.642978	160.478	67.7225	-19.1344	163.493	58.6363	-40.4657	154.742	32.3363	-21.5373	160.494	19.0839	-41.6997	163.364	5.45456	-58.2687	145.08	14.7679	-27.4599	149.451	3.85325	-44.9345	159.927	-10.1378	-65.3795	129.602	11.2555	-23.219	135.07	0.255688	-39.9982	142.973	-7.53152	-54.3874	109.604	11.8643	-13.2368	117.464	5.63303	-28.4395	126.248	-4.15636	-42.778	119.963	28.5846	17.4782	116.123	37.6556	43.4049	136.309	45.5514	28.8232	
32	0.266667	132.571	87.3732	29.2966	151.119	89.5704	2.45833	163.556	83.7964	-16.6238	168.989	74.3938	-35.2084	169.054	48.173	-13.532	183.088	37.4088	-33.8584	190.467	27.304	-46.6826	164.625	29.891	-16.7533	179.343	20.4079	-35.233	190.967	4.6216	-50.4571	151.307	18.5063	-13.9057	163.93	10.6432	-29.198	175.464	-0.873211	-44.6181	133.057	13.833	-5.62213	142.542	3.91782	-19.8698	157.579	-0.720895	-36.404	132.389	30.2848	24.3176	121.482	37.067	44.0554	143.485	53.9182	31.2283	
33	0.275	124.151	91.0449	30.3919	137.937	103.641	8.91673	152.782	102.4	-10.6589	166.748	97.2874	-30.3209	177.873	69.726	-10.7072	189.853	62.3937	-24.2224	202.993	52.0908	-37.6259	174.198	46.6814	-10.9939	193.38	43.8298	-26.5102	210.846	37.2102	-39.5164	168.605	32.0781	-10.7218	182.522	28.1169	-22.4606	195.287	22.0286	-34.8478	152.363	22.6028	-3.26672	164.401	18.3092	-14.6837	182.117	13.9801	-27.8447	143.416	40.306	27.8242	130.516	44.3976	45.2787	141.906	69.5945	36.763	
34	0.283333	115.9	92.4663	30.9881	125.856	111.503	10.553	137.11	112.706	-5.21877	151.881	118.163	-26.196	170.103	88.0835	-6.87267	189.674	91.9515	-22.2877	203.222	88.5606	-32.485	180.045	76.1095	-10.7933	195.088	75.1021	-23.1902	217.895	73.7722	-37.7377	174.296	56.9958	-7.82678	188.983	56.1647	-19.7494	209.219	60.0473	-33.1447	163.158	40.3189	-2.99851	177.419	40.2046	-14.8583	193.002	45.1303	-24.8762	145.788	50.0592	27.1625	131.67	50.1987	47.0987	139.774	77.8731	36.1462	
35	0.291667	102.607	87.4891	33.8503	107.688	111.3	11.4484	115.514	121.611	-5.21051	127.493	124.949	-22.5846	156.545	113.402	-7.17225	169.336	114.522	-20.3297	184.44	124.396	-31.3726	171.588	99.4051	-10.9078	185.67	106.183	-23.5227	205.083	111.461	-35.654	171.997	77.4549	-8.00745	186.771	90.4504	-21.8951	204.056	95.9159	-34.1067	169.303	62.8882	-4.66331	177.576	67.7747	-14.3619	192.701	77.019	-27.3164	148.895	66.684	27.5289	135.772	55.3991	48.2613	134.19	82.9031	37.8276	
36	0.3	95.9098	81.5087	31.1059	88.6542	98.1598	12.0094	95.457	116.597	-8.24269	100.58	123.738	-25.1365	134.682	119.597	-8.51156	142.363	132.902	-22.3084	155.352	141.678	-35.4459	148.936	117.81	-13.1709	160.589	127.435	-26.2535	174.775	146.187	-39.3596	159.317	97.9895	-10.6551	169.992	113.844	-26.4367	179.327	127.044	-38.7126	164.64	77.7648	-6.16589	174.615	93.2669	-20.6864	177.785	104.248	-27.1743	144.522	76.575	23.6227	138.866	67.4706	43.1775	123.317	85.8287	37.7146	
